:SAMPLES-PER-SECOND 30
:FULLY-SPECIFIED
:DEGREES
551
root  -20.3348 32.6121 -23.5539 -141.151 -9.89664 94.5857
Spine  4.06139 0.530317 -15.7229
Spine1  4.08058 -6.77561 0.216182
Neck  3.97569e-016 0 -2.38542e-015
Head  30.4001 -2.79985 28.6739
R_Clavicle  0.417702 -21.9045 0.469533
R_UpperArm  34.9071 -2.03329 27.1014
R_Forearm  9.97403 -38.1537 23.1614
R_Hand  -1.40057 8.82438 -21.9555
L_Clavicle  -0.645861 22.6405 0.0673242
L_UpperArm  -7.05902 0.511833 20.0803
L_Forearm  12.0354 42.1101 39.8566
L_Hand  0.112831 0.382238 2.17358
L_Thigh  6.40979 -9.88925 -14.0455
L_Calf  5.80407 -3.3026 25.375
L_Foot  6.66839 15.601 8.37122
L_Toe0  0.505156 0.0260617 -6.13617
R_Thigh  5.10926 0.19375 -16.4718
R_Calf  -0.0835875 8.17297 26.494
R_Foot  -1.60413 -2.72902 5.73249
R_Toe0  -1.78764 -0.272375 -17.323
552
root  -20.4369 32.6058 -23.614 -142.059 -10.0467 95.0223
Spine  4.35414 0.462439 -16.3
Spine1  4.35348 -6.63153 1.18719
Neck  3.97569e-016 0 -2.38542e-015
Head  31.2268 -3.03766 29.3352
R_Clavicle  0.432924 -22.8598 0.468356
R_UpperArm  39.7529 -2.54198 27.7639
R_Forearm  -0.499981 -45.2112 29.4431
R_Hand  -1.07947 8.84333 -19.6018
L_Clavicle  -0.635654 22.9789 0.380689
L_UpperArm  -11.1535 0.609696 20.6626
L_Forearm  17.2923 44.3257 41.963
L_Hand  0.129727 0.0224653 2.63416
L_Thigh  5.79253 -9.9244 -14.2642
L_Calf  5.27402 -3.22359 24.7994
L_Foot  7.03901 15.0302 9.95458
L_Toe0  0.505156 0.0257439 -6.13617
R_Thigh  4.52117 0.137215 -16.6418
R_Calf  -0.422093 8.13528 26.3555
R_Foot  -1.57844 -2.69546 5.63399
R_Toe0  -1.78788 -0.272404 -17.3232
553
root  -20.5556 32.5814 -23.6625 -142.794 -10.136 95.345
Spine  4.52872 0.471996 -16.8795
Spine1  4.50927 -6.69152 2.21107
Neck  3.97569e-016 0 -2.38542e-015
Head  32.2383 -3.03048 29.7138
R_Clavicle  0.451602 -24.0036 0.445166
R_UpperArm  40.9724 -3.05973 28.9756
R_Forearm  -8.85372 -48.979 35.9334
R_Hand  -0.414609 9.45207 -14.9341
L_Clavicle  -0.612818 23.2691 0.834308
L_UpperArm  -15.0896 0.801707 21.3377
L_Forearm  21.2494 45.7841 44.3674
L_Hand  0.131457 -0.290844 2.80422
L_Thigh  5.00773 -9.91707 -14.1378
L_Calf  5.18984 -3.11301 23.9108
L_Foot  7.20435 14.1076 11.3155
L_Toe0  0.505156 0.0254268 -6.13618
R_Thigh  4.27768 -0.012232 -16.551
R_Calf  -0.911103 8.04139 26.0247
R_Foot  -1.57216 -2.68713 5.61007
R_Toe0  -1.78813 -0.272436 -17.3233
554
root  -20.6955 32.5418 -23.705 -143.223 -10.2333 95.6631
Spine  4.56686 0.604829 -17.229
Spine1  4.51809 -6.86155 3.18634
Neck  3.97569e-016 0 -2.38542e-015
Head  33.1444 -2.83723 29.7931
R_Clavicle  0.467014 -24.9628 0.458874
R_UpperArm  41.8905 -4.29187 31.0427
R_Forearm  -13.6901 -49.8548 38.6206
R_Hand  0.59358 10.5547 -8.72893
L_Clavicle  -0.592517 23.593 1.22631
L_UpperArm  -17.8264 1.01961 22.1829
L_Forearm  22.8686 46.3735 46.3556
L_Hand  0.131976 -0.371339 2.85405
L_Thigh  4.41492 -9.95265 -13.9692
L_Calf  5.10125 -3.01135 23.0653
L_Foot  7.36807 13.5779 12.3267
L_Toe0  0.505156 0.0251108 -6.13618
R_Thigh  4.17534 -0.188683 -16.4184
R_Calf  -1.30596 7.9101 25.5647
R_Foot  -1.5407 -2.58354 5.637
R_Toe0  -1.78838 -0.272472 -17.3234
555
root  -20.8497 32.4975 -23.7556 -143.458 -10.4003 96.0702
Spine  4.44442 0.785508 -17.4049
Spine1  4.34885 -6.9986 4.23547
Neck  3.97569e-016 0 -2.38542e-015
Head  33.9909 -2.67781 29.5983
R_Clavicle  0.472581 -25.5273 0.572198
R_UpperArm  41.8459 -6.03976 33.5509
R_Forearm  -13.9593 -49.2969 38.1859
R_Hand  1.35048 10.9124 -4.19199
L_Clavicle  -0.574133 23.9771 1.57188
L_UpperArm  -19.2942 1.27087 23.2264
L_Forearm  22.394 46.3311 47.4698
L_Hand  0.132742 -0.376522 2.87042
L_Thigh  4.27778 -10.1134 -13.9668
L_Calf  4.71257 -2.92285 22.3738
L_Foot  7.52275 13.3697 12.9973
L_Toe0  0.505156 0.0247963 -6.13618
R_Thigh  3.9297 -0.321417 -16.4305
R_Calf  -1.53444 7.77373 25.085
R_Foot  -1.47588 -2.37891 5.67229
R_Toe0  -1.78861 -0.27251 -17.3236
556
root  -21.0119 32.46 -23.814 -143.672 -10.5978 96.5347
Spine  4.14412 0.902287 -17.6201
Spine1  3.99721 -7.03538 5.3985
Neck  3.97569e-016 0 -2.38542e-015
Head  34.9931 -2.65471 29.359
R_Clavicle  0.470478 -25.7254 0.726271
R_UpperArm  41.6661 -7.62645 35.8391
R_Forearm  -11.924 -48.3231 36.7422
R_Hand  1.21045 9.69264 -3.85346
L_Clavicle  -0.554241 24.3697 1.90511
L_UpperArm  -19.9554 1.58963 24.4937
L_Forearm  20.9682 45.9937 47.7739
L_Hand  0.129097 -0.411218 2.8095
L_Thigh  4.37718 -10.3387 -14.092
L_Calf  4.19939 -2.84935 21.8182
L_Foot  7.6612 13.2372 13.5441
L_Toe0  0.505156 0.0244837 -6.13618
R_Thigh  3.56969 -0.417746 -16.5375
R_Calf  -1.67199 7.66245 24.6947
R_Foot  -1.39298 -2.15132 5.63518
R_Toe0  -1.78883 -0.272549 -17.3237
557
root  -21.1845 32.4351 -23.8628 -143.947 -10.757 96.9229
Spine  3.7507 0.790265 -17.9645
Spine1  3.57562 -6.84404 6.44883
Neck  3.97569e-016 0 -2.38542e-015
Head  36.1349 -2.73403 29.4181
R_Clavicle  0.466091 -25.6242 0.817231
R_UpperArm  42.1735 -8.78882 37.6058
R_Forearm  -9.66356 -47.7049 36.4335
R_Hand  0.559644 7.68341 -6.59492
L_Clavicle  -0.541457 24.7942 2.1269
L_UpperArm  -20.1364 1.9508 25.9464
L_Forearm  19.6985 45.6872 47.6758
L_Hand  0.122611 -0.357425 2.64224
L_Thigh  4.27627 -10.5281 -14.151
L_Calf  3.93568 -2.79212 21.3939
L_Foot  7.75071 13.0865 13.9681
L_Toe0  0.505156 0.0241736 -6.13619
R_Thigh  3.25071 -0.554527 -16.5568
R_Calf  -1.78009 7.58405 24.4231
R_Foot  -1.30224 -1.94591 5.48493
R_Toe0  -1.78903 -0.272589 -17.3238
